<svg xmlns="http://www.w3.org/2000/svg" xmlns:xlink="http://www.w3.org/1999/xlink" width="400" zoomAndPan="magnify" viewBox="0 0 300 299.999988" height="400" preserveAspectRatio="xMidYMid meet" version="1.0"><defs><clipPath id="id1"><path d="M 143 279 L 157 279 L 157 293 L 143 293 Z M 143 279 " clip-rule="nonzero"/></clipPath><clipPath id="id2"><path d="M 151.101562 294.710938 L 141.078125 286.835938 L 148.953125 276.808594 L 158.980469 284.683594 Z M 151.101562 294.710938 " clip-rule="nonzero"/></clipPath><clipPath id="id3"><path d="M 143 279 L 157 279 L 157 293 L 143 293 Z M 143 279 " clip-rule="nonzero"/></clipPath><clipPath id="id4"><path d="M 151.101562 294.710938 L 141.078125 286.835938 L 148.953125 276.808594 L 158.980469 284.683594 Z M 151.101562 294.710938 " clip-rule="nonzero"/></clipPath><clipPath id="id5"><path d="M 151.101562 294.710938 L 140.882812 286.683594 L 148.796875 276.609375 L 159.015625 284.636719 Z M 151.101562 294.710938 " clip-rule="nonzero"/></clipPath><clipPath id="id6"><path d="M 146.089844 290.773438 C 148.859375 292.945312 152.867188 292.464844 155.039062 289.699219 C 157.214844 286.929688 156.734375 282.921875 153.964844 280.746094 C 151.195312 278.570312 147.1875 279.050781 145.015625 281.820312 C 142.839844 284.589844 143.320312 288.597656 146.089844 290.773438 " clip-rule="nonzero"/></clipPath><clipPath id="id7"><path d="M 139.390625 275.292969 L 160.59375 275.292969 L 160.59375 296.492188 L 139.390625 296.492188 Z M 139.390625 275.292969 " clip-rule="nonzero"/></clipPath></defs><g clip-path="url(#id1)"><g clip-path="url(#id2)"><path fill="#ffffff" d="M 146.089844 290.773438 C 148.859375 292.945312 152.867188 292.464844 155.039062 289.699219 C 157.214844 286.929688 156.734375 282.921875 153.964844 280.746094 C 151.195312 278.570312 147.1875 279.050781 145.015625 281.820312 C 142.839844 284.589844 143.320312 288.597656 146.089844 290.773438 " fill-opacity="1" fill-rule="nonzero"/></g></g><g clip-path="url(#id3)"><g clip-path="url(#id4)"><g clip-path="url(#id5)"><g clip-path="url(#id6)"><path stroke-linecap="butt" transform="matrix(-0.596358, -0.46848, 0.472432, -0.601388, 151.102786, 294.710338)" fill="none" stroke-linejoin="miter" d="M 8.405026 -0.00114087 C 3.76403 0.00274732 -0.000427269 3.734184 0.0003117 8.332343 C 0.000182107 12.937675 3.763093 16.670645 8.40727 16.670773 C 13.051448 16.670902 16.815905 12.939466 16.811984 8.337289 C 16.812114 3.731958 13.049203 -0.00101241 8.405026 -0.00114087 " stroke="#ffffff" stroke-width="2" stroke-opacity="1" stroke-miterlimit="4"/></g></g></g></g><path stroke-linecap="butt" transform="matrix(0.00000124621, -1.500691, 1.5, 0.00000124563, 150.005809, 279.624088)" fill="none" stroke-linejoin="miter" d="M -0.000608011 -0.00126847 L 185.918911 0.00118124 " stroke="#ffffff" stroke-width="1" stroke-opacity="1" stroke-miterlimit="4"/><path stroke-linecap="round" transform="matrix(0.00000124621, -1.500691, 1.5, 0.00000124563, 150.00603, -0.131924)" fill="none" stroke-linejoin="round" d="M -2.500861 -1.49881 L -0.499178 0.00118892 L -2.500858 1.501191 " stroke="#ffffff" stroke-width="1" stroke-opacity="1" stroke-miterlimit="4"/><g clip-path="url(#id7)"><path fill="#ffffff" d="M 149.992188 296.492188 C 147.160156 296.492188 144.496094 295.390625 142.496094 293.386719 C 140.492188 291.386719 139.390625 288.722656 139.390625 285.890625 C 139.390625 283.0625 140.492188 280.398438 142.496094 278.398438 C 144.496094 276.394531 147.160156 275.292969 149.992188 275.292969 C 152.820312 275.292969 155.488281 276.394531 157.488281 278.398438 C 159.492188 280.402344 160.59375 283.0625 160.59375 285.890625 C 160.59375 288.722656 159.492188 291.386719 157.488281 293.386719 C 155.488281 295.390625 152.820312 296.492188 149.992188 296.492188 Z M 149.992188 275.925781 C 147.332031 275.925781 144.828125 276.964844 142.945312 278.847656 C 141.0625 280.726562 140.027344 283.230469 140.027344 285.890625 C 140.027344 288.554688 141.0625 291.058594 142.945312 292.9375 C 144.828125 294.820312 147.332031 295.859375 149.992188 295.859375 C 152.652344 295.859375 155.15625 294.820312 157.039062 292.9375 C 158.917969 291.058594 159.957031 288.554688 159.957031 285.890625 C 159.957031 283.230469 158.917969 280.726562 157.039062 278.847656 C 155.15625 276.964844 152.652344 275.925781 149.992188 275.925781 Z M 149.992188 275.925781 " fill-opacity="1" fill-rule="nonzero"/></g></svg>